<?xml version="1.0" encoding="iso-8859-1"?>
<!-- Uploaded to: SVG Repo, www.svgrepo.com, Generator: SVG Repo Mixer Tools -->
<svg height="800px" width="800px" version="1.1" id="Layer_1" xmlns="http://www.w3.org/2000/svg" xmlns:xlink="http://www.w3.org/1999/xlink" 
	 viewBox="0 0 392.598 392.598" xml:space="preserve">
<path style="fill:#FFFFFF;" d="M298.343,249.923L298.343,249.923c0-6.012,4.848-10.925,10.925-10.925
	c33.939,0,61.479-27.604,61.479-61.479s-27.604-61.479-61.479-61.479c-3.103,0-6.4,0.323-10.15,0.905
	c-7.628,0.905-12.154-4.59-12.671-10.149c-2.844-47.58-42.408-85.01-90.182-85.01s-87.337,37.43-90.182,85.075
	c-0.517,6.853-6.077,11.313-12.671,10.15c-3.685-0.646-7.046-0.905-10.149-0.905c-33.939,0-61.479,27.604-61.479,61.479
	s27.604,61.479,61.479,61.479c6.012,0,10.925,4.848,10.925,10.925l0,0"/>
<path style="fill:#FFC10D;" d="M309.269,137.956c-1.939,0-4.008,0.259-6.594,0.646l0,0c-19.135,3.168-36.848-10.925-38.012-30.319
	v-0.065c-2.133-36.137-32.129-64.517-68.396-64.517s-66.198,28.38-68.396,64.517v0.065c-1.164,19.394-18.877,33.487-38.012,30.319
	l0,0c-2.521-0.388-4.719-0.646-6.594-0.646c-21.851,0-39.628,17.778-39.628,39.628s17.778,39.628,39.628,39.628h225.939
	c21.85,0,39.628-17.778,39.628-39.628C348.897,155.669,331.119,137.956,309.269,137.956z"/>
<path style="fill:#194F82;" d="M309.269,94.255c-0.776,0-1.552,0-2.327,0C298.343,40.533,251.733,0,196.267,0
	S94.19,40.598,85.527,94.255c-0.776,0-1.552,0-2.327,0c-45.899,0-83.2,37.301-83.2,83.329s37.301,83.329,83.329,83.329
	c6.012,0,10.925-4.848,10.925-10.925c0-6.077-4.848-10.925-10.925-10.925c-33.939,0-61.479-27.604-61.479-61.479
	s27.604-61.479,61.479-61.479c3.103,0,6.4,0.323,10.149,0.905c6.594,1.164,12.154-3.232,12.671-10.149
	c2.844-47.709,42.408-85.075,90.182-85.075s87.273,37.43,90.117,85.075c0.517,5.56,5.042,11.055,12.671,10.15
	c3.685-0.646,7.046-0.905,10.15-0.905c33.939,0,61.479,27.604,61.479,61.479s-27.604,61.479-61.479,61.479
	c-6.012,0-10.925,4.848-10.925,10.925s4.848,10.925,10.925,10.925c45.899,0,83.329-37.301,83.329-83.329
	S355.232,94.255,309.269,94.255z"/>
<path style="fill:#56ACE0;" d="M157.996,241.325h5.689c6.012,0,10.925,4.848,10.925,10.925v73.568h43.248v-73.632
	c0-6.012,4.848-10.925,10.925-10.925h5.689l-38.206-38.206L157.996,241.325z"/>
<g>
	<path style="fill:#194F82;" d="M268.541,244.493l-64.517-64.517c-4.267-4.267-11.119-4.267-15.451,0l-64.517,64.517
		c-3.103,3.103-4.008,7.822-2.392,11.895c1.681,4.073,5.624,6.723,10.02,6.723h21.075v73.568c0,6.012,4.848,10.925,10.925,10.925
		h65.034c6.012,0,10.925-4.849,10.925-10.925v-73.568h21.075c4.396,0,8.404-2.651,10.02-6.723
		C272.614,252.315,271.58,247.596,268.541,244.493z M228.784,241.325c-6.012,0-10.925,4.848-10.925,10.925v73.568H174.61v-73.632
		c0-6.012-4.848-10.925-10.925-10.925h-5.689l38.271-38.271l38.271,38.271L228.784,241.325L228.784,241.325z"/>
	<path style="fill:#194F82;" d="M263.24,370.747H129.293c-6.012,0-10.925,4.848-10.925,10.925s4.848,10.925,10.925,10.925h133.883
		c6.012,0,10.925-4.848,10.925-10.925C274.166,375.596,269.317,370.747,263.24,370.747z"/>
</g>
</svg>